<mxfile host="Electron" modified="2024-06-25T15:21:00.140Z" agent="Mozilla/5.0 (Windows NT 10.0; Win64; x64) AppleWebKit/537.36 (KHTML, like Gecko) draw.io/24.6.1 Chrome/124.0.6367.207 Electron/30.0.6 Safari/537.36" etag="1s2rzbO3TCLrw0Af6tbN" version="24.6.1" type="device">
  <diagram name="Page-1" id="wDBdlok4owlG9jAOKffC">
    <mxGraphModel dx="2969" dy="1375" grid="1" gridSize="10" guides="1" tooltips="1" connect="1" arrows="1" fold="1" page="1" pageScale="1" pageWidth="1169" pageHeight="827" math="0" shadow="0">
      <root>
        <mxCell id="0" />
        <mxCell id="1" parent="0" />
        <mxCell id="ZhQ0MyFdHs8SbyfFVafv-2" value="" style="rounded=1;whiteSpace=wrap;html=1;fillColor=#589151;" parent="1" vertex="1">
          <mxGeometry x="220" y="700" width="550" height="370" as="geometry" />
        </mxCell>
        <mxCell id="ZhQ0MyFdHs8SbyfFVafv-4" value="" style="rounded=1;whiteSpace=wrap;html=1;fillColor=#5D54A8;" parent="1" vertex="1">
          <mxGeometry x="120" y="420" width="320" height="240" as="geometry" />
        </mxCell>
        <mxCell id="ZhQ0MyFdHs8SbyfFVafv-9" value="" style="rounded=1;whiteSpace=wrap;html=1;fillColor=#A3A3A3;" parent="1" vertex="1">
          <mxGeometry x="-400" y="600" width="325" height="240" as="geometry" />
        </mxCell>
        <mxCell id="ZhQ0MyFdHs8SbyfFVafv-10" value="&lt;font style=&quot;font-size: 18px;&quot;&gt;Изменение тестов&lt;/font&gt;" style="rounded=1;whiteSpace=wrap;html=1;" parent="1" vertex="1">
          <mxGeometry x="275" y="770" width="200" height="110" as="geometry" />
        </mxCell>
        <mxCell id="ZhQ0MyFdHs8SbyfFVafv-11" value="&lt;font style=&quot;font-size: 18px;&quot;&gt;Изменение матчинга&lt;/font&gt;" style="rounded=1;whiteSpace=wrap;html=1;" parent="1" vertex="1">
          <mxGeometry x="525" y="770" width="200" height="110" as="geometry" />
        </mxCell>
        <mxCell id="ZhQ0MyFdHs8SbyfFVafv-12" value="&lt;b&gt;&lt;font color=&quot;#ffffff&quot; style=&quot;font-size: 25px;&quot;&gt;Развитие&lt;/font&gt;&lt;/b&gt;" style="text;html=1;align=center;verticalAlign=middle;whiteSpace=wrap;rounded=0;" parent="1" vertex="1">
          <mxGeometry x="380" y="720" width="220" height="30" as="geometry" />
        </mxCell>
        <mxCell id="ZhQ0MyFdHs8SbyfFVafv-13" value="" style="rounded=1;whiteSpace=wrap;html=1;fillColor=#5D54A8;" parent="1" vertex="1">
          <mxGeometry x="870" y="690" width="315" height="240" as="geometry" />
        </mxCell>
        <mxCell id="ZhQ0MyFdHs8SbyfFVafv-14" value="&lt;font style=&quot;font-size: 18px;&quot;&gt;Проведение тестирования&lt;/font&gt;" style="rounded=1;whiteSpace=wrap;html=1;" parent="1" vertex="1">
          <mxGeometry x="927.5" y="780" width="200" height="110" as="geometry" />
        </mxCell>
        <mxCell id="ZhQ0MyFdHs8SbyfFVafv-16" value="&lt;b&gt;&lt;font color=&quot;#ffffff&quot; style=&quot;font-size: 25px;&quot;&gt;Тестирование воркеров&lt;/font&gt;&lt;/b&gt;" style="text;html=1;align=center;verticalAlign=middle;whiteSpace=wrap;rounded=0;" parent="1" vertex="1">
          <mxGeometry x="915" y="711" width="240" height="30" as="geometry" />
        </mxCell>
        <mxCell id="ZhQ0MyFdHs8SbyfFVafv-18" value="&lt;font style=&quot;font-size: 18px;&quot;&gt;Анализ аудита&lt;/font&gt;" style="rounded=1;whiteSpace=wrap;html=1;" parent="1" vertex="1">
          <mxGeometry x="390" y="930" width="200" height="110" as="geometry" />
        </mxCell>
        <mxCell id="ZhQ0MyFdHs8SbyfFVafv-19" value="&lt;font color=&quot;#ffffff&quot;&gt;&lt;span style=&quot;font-size: 25px;&quot;&gt;&lt;b&gt;Контроль качества&lt;/b&gt;&lt;/span&gt;&lt;/font&gt;" style="text;html=1;align=center;verticalAlign=middle;whiteSpace=wrap;rounded=0;" parent="1" vertex="1">
          <mxGeometry x="160" y="441" width="240" height="30" as="geometry" />
        </mxCell>
        <mxCell id="ZhQ0MyFdHs8SbyfFVafv-20" value="&lt;div&gt;&lt;font style=&quot;font-size: 18px;&quot;&gt;Аудит&lt;/font&gt;&lt;/div&gt;&lt;font style=&quot;font-size: 18px;&quot;&gt;(Сбор информации о задачах и результатах)&lt;/font&gt;" style="rounded=1;whiteSpace=wrap;html=1;" parent="1" vertex="1">
          <mxGeometry x="180" y="510" width="200" height="110" as="geometry" />
        </mxCell>
        <mxCell id="ZhQ0MyFdHs8SbyfFVafv-21" value="&lt;font color=&quot;#ffffff&quot;&gt;&lt;span style=&quot;font-size: 25px;&quot;&gt;&lt;b&gt;Кадры&lt;/b&gt;&lt;/span&gt;&lt;/font&gt;" style="text;html=1;align=center;verticalAlign=middle;whiteSpace=wrap;rounded=0;" parent="1" vertex="1">
          <mxGeometry x="-360" y="621" width="240" height="30" as="geometry" />
        </mxCell>
        <mxCell id="ZhQ0MyFdHs8SbyfFVafv-22" value="&lt;font style=&quot;font-size: 18px;&quot;&gt;Учет кадров&lt;/font&gt;&lt;div&gt;&lt;font style=&quot;font-size: 18px;&quot;&gt;(воркеры, менеджеры, кладовщики и тд, кроме клиентов)&lt;/font&gt;&lt;/div&gt;" style="rounded=1;whiteSpace=wrap;html=1;" parent="1" vertex="1">
          <mxGeometry x="-337.5" y="690" width="200" height="110" as="geometry" />
        </mxCell>
        <mxCell id="ZhQ0MyFdHs8SbyfFVafv-23" value="" style="rounded=1;whiteSpace=wrap;html=1;fillColor=#589151;" parent="1" vertex="1">
          <mxGeometry x="30" y="51" width="325" height="240" as="geometry" />
        </mxCell>
        <mxCell id="ZhQ0MyFdHs8SbyfFVafv-24" value="&lt;font color=&quot;#ffffff&quot;&gt;&lt;span style=&quot;font-size: 25px;&quot;&gt;&lt;b&gt;Матчинг&lt;/b&gt;&lt;/span&gt;&lt;/font&gt;" style="text;html=1;align=center;verticalAlign=middle;whiteSpace=wrap;rounded=0;" parent="1" vertex="1">
          <mxGeometry x="70" y="72" width="240" height="30" as="geometry" />
        </mxCell>
        <mxCell id="ZhQ0MyFdHs8SbyfFVafv-25" value="&lt;font style=&quot;font-size: 18px;&quot;&gt;Матчинг клиентов и воркеров&lt;/font&gt;" style="rounded=1;whiteSpace=wrap;html=1;" parent="1" vertex="1">
          <mxGeometry x="92.5" y="141" width="200" height="110" as="geometry" />
        </mxCell>
        <mxCell id="ZhQ0MyFdHs8SbyfFVafv-26" value="" style="rounded=1;whiteSpace=wrap;html=1;fillColor=#5D54A8;" parent="1" vertex="1">
          <mxGeometry x="-137.5" y="865" width="320" height="240" as="geometry" />
        </mxCell>
        <mxCell id="ZhQ0MyFdHs8SbyfFVafv-27" value="&lt;font color=&quot;#ffffff&quot;&gt;&lt;span style=&quot;font-size: 25px;&quot;&gt;&lt;b&gt;Тотализатор&lt;/b&gt;&lt;/span&gt;&lt;/font&gt;" style="text;html=1;align=center;verticalAlign=middle;whiteSpace=wrap;rounded=0;" parent="1" vertex="1">
          <mxGeometry x="-97.5" y="886" width="240" height="30" as="geometry" />
        </mxCell>
        <mxCell id="ZhQ0MyFdHs8SbyfFVafv-28" value="&lt;font style=&quot;font-size: 18px;&quot;&gt;Тотализатор&lt;/font&gt;" style="rounded=1;whiteSpace=wrap;html=1;" parent="1" vertex="1">
          <mxGeometry x="-77.5" y="955" width="200" height="110" as="geometry" />
        </mxCell>
        <mxCell id="ZhQ0MyFdHs8SbyfFVafv-29" value="" style="rounded=1;whiteSpace=wrap;html=1;fillColor=#A3A3A3;" parent="1" vertex="1">
          <mxGeometry x="865" y="358" width="325" height="240" as="geometry" />
        </mxCell>
        <mxCell id="ZhQ0MyFdHs8SbyfFVafv-30" value="&lt;font color=&quot;#ffffff&quot;&gt;&lt;span style=&quot;font-size: 25px;&quot;&gt;&lt;b&gt;Выплаты&lt;/b&gt;&lt;/span&gt;&lt;/font&gt;" style="text;html=1;align=center;verticalAlign=middle;whiteSpace=wrap;rounded=0;" parent="1" vertex="1">
          <mxGeometry x="905" y="379" width="240" height="30" as="geometry" />
        </mxCell>
        <mxCell id="ZhQ0MyFdHs8SbyfFVafv-31" value="&lt;font style=&quot;font-size: 18px;&quot;&gt;Бухгалтерия&lt;/font&gt;" style="rounded=1;whiteSpace=wrap;html=1;" parent="1" vertex="1">
          <mxGeometry x="927.5" y="448" width="200" height="110" as="geometry" />
        </mxCell>
        <mxCell id="ZhQ0MyFdHs8SbyfFVafv-32" value="" style="rounded=1;whiteSpace=wrap;html=1;fillColor=#5D54A8;" parent="1" vertex="1">
          <mxGeometry x="440" y="51" width="530" height="240" as="geometry" />
        </mxCell>
        <mxCell id="ZhQ0MyFdHs8SbyfFVafv-33" value="&lt;font color=&quot;#ffffff&quot;&gt;&lt;span style=&quot;font-size: 25px;&quot;&gt;&lt;b&gt;Сборка расходников&lt;/b&gt;&lt;/span&gt;&lt;/font&gt;" style="text;html=1;align=center;verticalAlign=middle;whiteSpace=wrap;rounded=0;" parent="1" vertex="1">
          <mxGeometry x="580" y="72" width="240" height="30" as="geometry" />
        </mxCell>
        <mxCell id="ZhQ0MyFdHs8SbyfFVafv-34" value="&lt;span style=&quot;font-size: 18px;&quot;&gt;Расходники&lt;/span&gt;" style="rounded=1;whiteSpace=wrap;html=1;" parent="1" vertex="1">
          <mxGeometry x="485" y="141" width="200" height="110" as="geometry" />
        </mxCell>
        <mxCell id="ZhQ0MyFdHs8SbyfFVafv-35" value="" style="rounded=1;whiteSpace=wrap;html=1;fillColor=#5D54A8;" parent="1" vertex="1">
          <mxGeometry x="-315" y="280" width="315" height="240" as="geometry" />
        </mxCell>
        <mxCell id="ZhQ0MyFdHs8SbyfFVafv-36" value="&lt;font style=&quot;font-size: 18px;&quot;&gt;Ведение задач и клиентов&lt;/font&gt;" style="rounded=1;whiteSpace=wrap;html=1;" parent="1" vertex="1">
          <mxGeometry x="-257.5" y="370" width="200" height="110" as="geometry" />
        </mxCell>
        <mxCell id="ZhQ0MyFdHs8SbyfFVafv-37" value="&lt;b&gt;&lt;font color=&quot;#ffffff&quot; style=&quot;font-size: 25px;&quot;&gt;Документооборот&lt;/font&gt;&lt;/b&gt;" style="text;html=1;align=center;verticalAlign=middle;whiteSpace=wrap;rounded=0;" parent="1" vertex="1">
          <mxGeometry x="-270" y="301" width="240" height="30" as="geometry" />
        </mxCell>
        <mxCell id="OjlBisbnbvDBDd95-de6-1" value="&lt;font style=&quot;font-size: 18px;&quot;&gt;Печение&lt;/font&gt;" style="rounded=1;whiteSpace=wrap;html=1;" vertex="1" parent="1">
          <mxGeometry x="727.5" y="141" width="200" height="110" as="geometry" />
        </mxCell>
      </root>
    </mxGraphModel>
  </diagram>
</mxfile>
